<svg width="26" height="26" viewBox="0 0 26 26" fill="none" xmlns="http://www.w3.org/2000/svg">
<path d="M7.69612 14.9108C9.52914 14.9108 10.9982 16.3942 10.9982 18.2402V22.6719C10.9982 24.505 9.52914 26 7.69612 26H3.30205C1.48202 26 0 24.505 0 22.6719V18.2402C0 16.3942 1.48202 14.9108 3.30205 14.9108H7.69612ZM22.6985 14.9108C24.5185 14.9108 26.0005 16.3942 26.0005 18.2402V22.6719C26.0005 24.505 24.5185 26 22.6985 26H18.3044C16.4714 26 15.0024 24.505 15.0024 22.6719V18.2402C15.0024 16.3942 16.4714 14.9108 18.3044 14.9108H22.6985ZM7.69612 0C9.52914 0 10.9982 1.49502 10.9982 3.32935V7.76112C10.9982 9.60714 9.52914 11.0892 7.69612 11.0892H3.30205C1.48202 11.0892 0 9.60714 0 7.76112V3.32935C0 1.49502 1.48202 0 3.30205 0H7.69612ZM22.6985 0C24.5185 0 26.0005 1.49502 26.0005 3.32935V7.76112C26.0005 9.60714 24.5185 11.0892 22.6985 11.0892H18.3044C16.4714 11.0892 15.0024 9.60714 15.0024 7.76112V3.32935C15.0024 1.49502 16.4714 0 18.3044 0H22.6985Z" fill="white"/>
</svg>
