<svg width="27" height="27" viewBox="0 0 27 27" fill="none" xmlns="http://www.w3.org/2000/svg">
<path d="M21.8968 11.5058C21.8968 4.89744 18.3955 2.64952 15.121 2.14848C15.121 2.11463 15.1276 2.08077 15.1276 2.04015C15.1276 1.20733 14.4007 0.543793 13.5137 0.543793C12.6267 0.543793 11.9265 1.20733 11.9265 2.04015C11.9265 2.08077 11.9265 2.11463 11.9331 2.14848C8.65192 2.65629 5.13062 4.91098 5.13062 11.5193C5.13062 19.2245 3.24325 20.0506 0.708984 22.2172H26.3185C23.7975 20.0438 21.8968 19.211 21.8968 11.5058Z" fill="white"/>
<path d="M13.5271 26.5438C15.3144 26.5438 16.7816 25.1964 16.975 23.6323H10.0792C10.2659 25.1964 11.7398 26.5438 13.5271 26.5438Z" fill="white"/>
</svg>
