<svg width="25" height="26" viewBox="0 0 25 26" fill="none" xmlns="http://www.w3.org/2000/svg">
<path d="M8.70859 24.4053V20.4303C8.70859 19.4156 9.54521 18.593 10.5772 18.593H14.3498C14.8454 18.593 15.3207 18.7866 15.6711 19.1311C16.0216 19.4757 16.2184 19.943 16.2184 20.4303V24.4053C16.2153 24.8272 16.3835 25.2328 16.6858 25.5322C16.9881 25.8316 17.3995 26 17.8285 26H20.4023C21.6044 26.003 22.7583 25.5357 23.6094 24.701C24.4605 23.8664 24.9388 22.7331 24.9388 21.5512V10.2269C24.9388 9.27219 24.5083 8.36659 23.7635 7.75406L15.0079 0.878629C13.4849 -0.32687 11.3027 -0.287947 9.82508 0.971072L1.26927 7.75406C0.489247 8.34853 0.0230386 9.25682 0 10.2269V21.5396C0 24.003 2.03104 26 4.53646 26H7.05149C7.94264 26 8.66688 25.2931 8.67333 24.4169L8.70859 24.4053Z" fill="white"/>
</svg>
