<svg width="202" height="30" viewBox="0 0 202 30" fill="none" xmlns="http://www.w3.org/2000/svg">
<path d="M15.3047 19.957H18.8984C18.8073 21.9102 18.4102 23.5964 17.707 25.0156C17.0169 26.4219 16.0078 27.5026 14.6797 28.2578C13.3646 29.013 11.7174 29.3906 9.73828 29.3906C8.31901 29.3906 7.03646 29.1107 5.89062 28.5508C4.74479 27.9909 3.76172 27.1901 2.94141 26.1484C2.13411 25.0938 1.51562 23.8307 1.08594 22.3594C0.65625 20.888 0.441406 19.2344 0.441406 17.3984V12.1445C0.441406 10.3216 0.65625 8.67448 1.08594 7.20312C1.52865 5.73177 2.16016 4.47526 2.98047 3.43359C3.8138 2.37891 4.82292 1.57161 6.00781 1.01172C7.20573 0.451823 8.5599 0.171875 10.0703 0.171875C11.9193 0.171875 13.4818 0.542969 14.7578 1.28516C16.0469 2.01432 17.0365 3.08854 17.7266 4.50781C18.4297 5.91406 18.8203 7.63932 18.8984 9.68359H15.3047C15.2135 8.1862 14.9792 6.96875 14.6016 6.03125C14.224 5.08073 13.6641 4.38411 12.9219 3.94141C12.1927 3.48568 11.2422 3.25781 10.0703 3.25781C9.02865 3.25781 8.1237 3.46615 7.35547 3.88281C6.60026 4.29948 5.97526 4.89844 5.48047 5.67969C4.9987 6.44792 4.63411 7.37891 4.38672 8.47266C4.15234 9.55339 4.03516 10.7643 4.03516 12.1055V17.3984C4.03516 18.6484 4.13281 19.8138 4.32812 20.8945C4.53646 21.9753 4.86198 22.9258 5.30469 23.7461C5.76042 24.5534 6.35286 25.1849 7.08203 25.6406C7.8112 26.0964 8.69661 26.3242 9.73828 26.3242C11.0534 26.3242 12.0951 26.1094 12.8633 25.6797C13.6315 25.25 14.1979 24.5664 14.5625 23.6289C14.9401 22.6914 15.1875 21.4674 15.3047 19.957ZM38.5078 25.9336V29H26.7109V25.9336H38.5078ZM27.3555 0.5625V29H23.7617V0.5625H27.3555ZM52.3945 3.08203L44.6211 29H40.9492L50.1094 0.5625H52.4141L52.3945 3.08203ZM58.6836 29L50.9102 3.08203L50.8711 0.5625H53.1953L62.3555 29H58.6836ZM58.6836 18.4727V21.5586H44.9727V18.4727H58.6836ZM78.7031 21.8125C78.7031 21.1484 78.625 20.5625 78.4688 20.0547C78.3125 19.5339 78.0391 19.0651 77.6484 18.6484C77.2578 18.2318 76.7109 17.8346 76.0078 17.457C75.3047 17.0794 74.4128 16.6953 73.332 16.3047C72.1602 15.888 71.099 15.4258 70.1484 14.918C69.1979 14.3971 68.3841 13.8047 67.707 13.1406C67.043 12.4766 66.5286 11.7148 66.1641 10.8555C65.7995 9.99609 65.6172 9.01302 65.6172 7.90625C65.6172 6.79948 65.806 5.77734 66.1836 4.83984C66.5742 3.90234 67.1211 3.08854 67.8242 2.39844C68.5404 1.69531 69.3997 1.14844 70.4023 0.757812C71.4049 0.367188 72.5247 0.171875 73.7617 0.171875C75.6107 0.171875 77.1667 0.582031 78.4297 1.40234C79.7057 2.20964 80.6693 3.27083 81.3203 4.58594C81.9714 5.88802 82.2969 7.28125 82.2969 8.76562H78.7031C78.7031 7.69792 78.5273 6.75391 78.1758 5.93359C77.8372 5.10026 77.3034 4.44922 76.5742 3.98047C75.8581 3.4987 74.9206 3.25781 73.7617 3.25781C72.7201 3.25781 71.8607 3.45964 71.1836 3.86328C70.5195 4.26693 70.0247 4.8138 69.6992 5.50391C69.3867 6.19401 69.2305 6.98177 69.2305 7.86719C69.2305 8.46615 69.3346 9.01302 69.543 9.50781C69.7513 9.98958 70.0703 10.4388 70.5 10.8555C70.9427 11.2721 71.4896 11.6562 72.1406 12.0078C72.8047 12.3594 73.5859 12.6979 74.4844 13.0234C75.8776 13.4792 77.069 13.987 78.0586 14.5469C79.0482 15.1068 79.8555 15.7383 80.4805 16.4414C81.1055 17.1315 81.5612 17.9193 81.8477 18.8047C82.1471 19.6771 82.2969 20.6667 82.2969 21.7734C82.2969 22.9323 82.1016 23.9805 81.7109 24.918C81.3333 25.8555 80.7799 26.6562 80.0508 27.3203C79.3216 27.9844 78.4427 28.4987 77.4141 28.8633C76.3854 29.2148 75.2266 29.3906 73.9375 29.3906C72.8177 29.3906 71.7174 29.2083 70.6367 28.8438C69.569 28.4792 68.599 27.9323 67.7266 27.2031C66.8542 26.474 66.1576 25.5755 65.6367 24.5078C65.1159 23.4271 64.8555 22.1771 64.8555 20.7578H68.4492C68.4492 21.7344 68.5924 22.5742 68.8789 23.2773C69.1654 23.9674 69.5625 24.5404 70.0703 24.9961C70.5781 25.4518 71.1576 25.7904 71.8086 26.0117C72.4727 26.2201 73.1823 26.3242 73.9375 26.3242C74.9792 26.3242 75.8516 26.1419 76.5547 25.7773C77.2708 25.4128 77.8047 24.8919 78.1562 24.2148C78.5208 23.5378 78.7031 22.737 78.7031 21.8125ZM99.4453 21.8125C99.4453 21.1484 99.3672 20.5625 99.2109 20.0547C99.0547 19.5339 98.7812 19.0651 98.3906 18.6484C98 18.2318 97.4531 17.8346 96.75 17.457C96.0469 17.0794 95.1549 16.6953 94.0742 16.3047C92.9023 15.888 91.8411 15.4258 90.8906 14.918C89.9401 14.3971 89.1263 13.8047 88.4492 13.1406C87.7852 12.4766 87.2708 11.7148 86.9062 10.8555C86.5417 9.99609 86.3594 9.01302 86.3594 7.90625C86.3594 6.79948 86.5482 5.77734 86.9258 4.83984C87.3164 3.90234 87.8633 3.08854 88.5664 2.39844C89.2826 1.69531 90.1419 1.14844 91.1445 0.757812C92.1471 0.367188 93.2669 0.171875 94.5039 0.171875C96.3529 0.171875 97.9089 0.582031 99.1719 1.40234C100.448 2.20964 101.411 3.27083 102.062 4.58594C102.714 5.88802 103.039 7.28125 103.039 8.76562H99.4453C99.4453 7.69792 99.2695 6.75391 98.918 5.93359C98.5794 5.10026 98.0456 4.44922 97.3164 3.98047C96.6003 3.4987 95.6628 3.25781 94.5039 3.25781C93.4622 3.25781 92.6029 3.45964 91.9258 3.86328C91.2617 4.26693 90.7669 4.8138 90.4414 5.50391C90.1289 6.19401 89.9727 6.98177 89.9727 7.86719C89.9727 8.46615 90.0768 9.01302 90.2852 9.50781C90.4935 9.98958 90.8125 10.4388 91.2422 10.8555C91.6849 11.2721 92.2318 11.6562 92.8828 12.0078C93.5469 12.3594 94.3281 12.6979 95.2266 13.0234C96.6198 13.4792 97.8112 13.987 98.8008 14.5469C99.7904 15.1068 100.598 15.7383 101.223 16.4414C101.848 17.1315 102.303 17.9193 102.59 18.8047C102.889 19.6771 103.039 20.6667 103.039 21.7734C103.039 22.9323 102.844 23.9805 102.453 24.918C102.076 25.8555 101.522 26.6562 100.793 27.3203C100.064 27.9844 99.1849 28.4987 98.1562 28.8633C97.1276 29.2148 95.9688 29.3906 94.6797 29.3906C93.5599 29.3906 92.4596 29.2083 91.3789 28.8438C90.3112 28.4792 89.3411 27.9323 88.4688 27.2031C87.5964 26.474 86.8997 25.5755 86.3789 24.5078C85.8581 23.4271 85.5977 22.1771 85.5977 20.7578H89.1914C89.1914 21.7344 89.3346 22.5742 89.6211 23.2773C89.9076 23.9674 90.3047 24.5404 90.8125 24.9961C91.3203 25.4518 91.8997 25.7904 92.5508 26.0117C93.2148 26.2201 93.9245 26.3242 94.6797 26.3242C95.7214 26.3242 96.5938 26.1419 97.2969 25.7773C98.013 25.4128 98.5469 24.8919 98.8984 24.2148C99.263 23.5378 99.4453 22.737 99.4453 21.8125ZM107.766 0.5625H115.715C117.564 0.5625 119.113 0.888021 120.363 1.53906C121.626 2.1901 122.577 3.15365 123.215 4.42969C123.866 5.69271 124.191 7.2487 124.191 9.09766C124.191 10.3997 123.977 11.5911 123.547 12.6719C123.117 13.7396 122.492 14.651 121.672 15.4062C120.852 16.1484 119.855 16.7018 118.684 17.0664L117.707 17.4766H110.617L110.578 14.4102H115.676C116.77 14.4102 117.681 14.1758 118.41 13.707C119.139 13.2253 119.686 12.5807 120.051 11.7734C120.415 10.9661 120.598 10.0742 120.598 9.09766C120.598 8.00391 120.435 7.04688 120.109 6.22656C119.784 5.40625 119.263 4.77474 118.547 4.33203C117.844 3.8763 116.9 3.64844 115.715 3.64844H111.359V29H107.766V0.5625ZM121.418 29L115.754 16.1094L119.484 16.0898L125.266 28.7656V29H121.418ZM147.492 12.3203V17.2617C147.492 19.2669 147.271 21.0312 146.828 22.5547C146.398 24.0651 145.767 25.3281 144.934 26.3438C144.1 27.3594 143.098 28.1211 141.926 28.6289C140.754 29.1367 139.432 29.3906 137.961 29.3906C136.542 29.3906 135.246 29.1367 134.074 28.6289C132.902 28.1211 131.893 27.3594 131.047 26.3438C130.201 25.3281 129.543 24.0651 129.074 22.5547C128.618 21.0312 128.391 19.2669 128.391 17.2617V12.3203C128.391 10.3151 128.618 8.55729 129.074 7.04688C129.53 5.52344 130.181 4.25391 131.027 3.23828C131.874 2.22266 132.883 1.46094 134.055 0.953125C135.227 0.432292 136.522 0.171875 137.941 0.171875C139.413 0.171875 140.734 0.432292 141.906 0.953125C143.091 1.46094 144.094 2.22266 144.914 3.23828C145.747 4.25391 146.385 5.52344 146.828 7.04688C147.271 8.55729 147.492 10.3151 147.492 12.3203ZM143.938 17.2617V12.2812C143.938 10.7188 143.807 9.3776 143.547 8.25781C143.286 7.125 142.902 6.20052 142.395 5.48438C141.887 4.76823 141.262 4.24089 140.52 3.90234C139.777 3.55078 138.918 3.375 137.941 3.375C137.017 3.375 136.184 3.55078 135.441 3.90234C134.712 4.24089 134.087 4.76823 133.566 5.48438C133.046 6.20052 132.642 7.125 132.355 8.25781C132.082 9.3776 131.945 10.7188 131.945 12.2812V17.2617C131.945 18.8372 132.082 20.1914 132.355 21.3242C132.642 22.444 133.046 23.3685 133.566 24.0977C134.1 24.8138 134.738 25.3477 135.48 25.6992C136.223 26.0378 137.049 26.207 137.961 26.207C138.938 26.207 139.797 26.0378 140.539 25.6992C141.294 25.3477 141.919 24.8138 142.414 24.0977C142.922 23.3685 143.299 22.444 143.547 21.3242C143.807 20.1914 143.938 18.8372 143.938 17.2617ZM171.555 12.3203V17.2617C171.555 19.2669 171.333 21.0312 170.891 22.5547C170.461 24.0651 169.829 25.3281 168.996 26.3438C168.163 27.3594 167.16 28.1211 165.988 28.6289C164.816 29.1367 163.495 29.3906 162.023 29.3906C160.604 29.3906 159.309 29.1367 158.137 28.6289C156.965 28.1211 155.956 27.3594 155.109 26.3438C154.263 25.3281 153.605 24.0651 153.137 22.5547C152.681 21.0312 152.453 19.2669 152.453 17.2617V12.3203C152.453 10.3151 152.681 8.55729 153.137 7.04688C153.592 5.52344 154.243 4.25391 155.09 3.23828C155.936 2.22266 156.945 1.46094 158.117 0.953125C159.289 0.432292 160.585 0.171875 162.004 0.171875C163.475 0.171875 164.797 0.432292 165.969 0.953125C167.154 1.46094 168.156 2.22266 168.977 3.23828C169.81 4.25391 170.448 5.52344 170.891 7.04688C171.333 8.55729 171.555 10.3151 171.555 12.3203ZM168 17.2617V12.2812C168 10.7188 167.87 9.3776 167.609 8.25781C167.349 7.125 166.965 6.20052 166.457 5.48438C165.949 4.76823 165.324 4.24089 164.582 3.90234C163.84 3.55078 162.98 3.375 162.004 3.375C161.079 3.375 160.246 3.55078 159.504 3.90234C158.775 4.24089 158.15 4.76823 157.629 5.48438C157.108 6.20052 156.704 7.125 156.418 8.25781C156.145 9.3776 156.008 10.7188 156.008 12.2812V17.2617C156.008 18.8372 156.145 20.1914 156.418 21.3242C156.704 22.444 157.108 23.3685 157.629 24.0977C158.163 24.8138 158.801 25.3477 159.543 25.6992C160.285 26.0378 161.112 26.207 162.023 26.207C163 26.207 163.859 26.0378 164.602 25.6992C165.357 25.3477 165.982 24.8138 166.477 24.0977C166.984 23.3685 167.362 22.444 167.609 21.3242C167.87 20.1914 168 18.8372 168 17.2617ZM178.254 0.5625H181.73L189.172 23.7461L196.594 0.5625H200.07L190.52 29H187.785L178.254 0.5625ZM177.121 0.5625H180.168L180.695 17.9062V29H177.121V0.5625ZM198.137 0.5625H201.184V29H197.609V17.9062L198.137 0.5625Z" fill="white"/>
</svg>
