<svg width="36" height="38" viewBox="0 0 36 38" fill="none" xmlns="http://www.w3.org/2000/svg">
<path d="M12.5712 35.23V29.4918C12.5712 28.0271 13.7789 26.8396 15.2686 26.8396H20.7144C21.4298 26.8396 22.1159 27.1191 22.6218 27.6164C23.1277 28.1138 23.4119 28.7884 23.4119 29.4918V35.23C23.4074 35.8389 23.6502 36.4245 24.0866 36.8567C24.523 37.2888 25.1167 37.5319 25.7361 37.5319H29.4515C31.1867 37.5363 32.8524 36.8617 34.081 35.6568C35.3095 34.452 36 32.816 36 31.1099V14.7629C36 13.3847 35.3787 12.0775 34.3035 11.1933L21.6645 1.26833C19.4659 -0.471848 16.3158 -0.415662 14.1828 1.40178L1.83223 11.1933C0.706245 12.0514 0.033257 13.3625 0 14.7629V31.0932C0 34.6492 2.93188 37.5319 6.54854 37.5319H10.1791C11.4655 37.5319 12.5109 36.5114 12.5203 35.2466L12.5712 35.23Z" fill="white"/>
</svg>
