<svg width="36" height="37" viewBox="0 0 36 37" fill="none" xmlns="http://www.w3.org/2000/svg">
<path fill-rule="evenodd" clip-rule="evenodd" d="M18 36.532C27.9414 36.532 36 28.4734 36 18.532C36 8.59058 27.9414 0.531982 18 0.531982C8.0586 0.531982 0 8.59058 0 18.532C0 28.4734 8.0586 36.532 18 36.532ZM23.4 14.932C23.4 16.3642 22.8311 17.7377 21.8184 18.7504C20.8057 19.7631 19.4322 20.332 18 20.332C16.5678 20.332 15.1943 19.7631 14.1816 18.7504C13.1689 17.7377 12.6 16.3642 12.6 14.932C12.6 13.4998 13.1689 12.1263 14.1816 11.1136C15.1943 10.1009 16.5678 9.53198 18 9.53198C19.4322 9.53198 20.8057 10.1009 21.8184 11.1136C22.8311 12.1263 23.4 13.4998 23.4 14.932ZM7.2 27.532C8.45642 25.8542 10.0868 24.4925 11.9616 23.5551C13.8364 22.6177 15.9039 22.1304 18 22.132C20.0961 22.1304 22.1636 22.6177 24.0384 23.5551C25.9132 24.4925 27.5436 25.8542 28.8 27.532C27.5436 29.2098 25.9132 30.5714 24.0384 31.5088C22.1636 32.4462 20.0961 32.9335 18 32.932C15.9039 32.9335 13.8364 32.4462 11.9616 31.5088C10.0868 30.5714 8.45642 29.2098 7.2 27.532Z" fill="white"/>
</svg>
