<svg width="36" height="37" viewBox="0 0 36 37" fill="none" xmlns="http://www.w3.org/2000/svg">
<path d="M10.6559 21.1781C13.1939 21.1781 15.2279 23.2319 15.2279 25.7878V31.924C15.2279 34.462 13.1939 36.532 10.6559 36.532H4.57198C2.05199 36.532 0 34.462 0 31.924V25.7878C0 23.2319 2.05199 21.1781 4.57198 21.1781H10.6559ZM31.428 21.1781C33.948 21.1781 36 23.2319 36 25.7878V31.924C36 34.462 33.948 36.532 31.428 36.532H25.3441C22.8061 36.532 20.7721 34.462 20.7721 31.924V25.7878C20.7721 23.2319 22.8061 21.1781 25.3441 21.1781H31.428ZM10.6559 0.532715C13.1939 0.532715 15.2279 2.6027 15.2279 5.14249V11.2787C15.2279 13.8346 13.1939 15.8866 10.6559 15.8866H4.57198C2.05199 15.8866 0 13.8346 0 11.2787V5.14249C0 2.6027 2.05199 0.532715 4.57198 0.532715H10.6559ZM31.428 0.532715C33.948 0.532715 36 2.6027 36 5.14249V11.2787C36 13.8346 33.948 15.8866 31.428 15.8866H25.3441C22.8061 15.8866 20.7721 13.8346 20.7721 11.2787V5.14249C20.7721 2.6027 22.8061 0.532715 25.3441 0.532715H31.428Z" fill="white"/>
</svg>
