<svg width="483" height="71" viewBox="0 0 483 71" fill="none" xmlns="http://www.w3.org/2000/svg">
<path d="M36.5312 48.2969H45.1562C44.9375 52.9844 43.9844 57.0312 42.2969 60.4375C40.6406 63.8125 38.2188 66.4062 35.0312 68.2188C31.875 70.0312 27.9219 70.9375 23.1719 70.9375C19.7656 70.9375 16.6875 70.2656 13.9375 68.9219C11.1875 67.5781 8.82812 65.6562 6.85938 63.1562C4.92188 60.625 3.4375 57.5938 2.40625 54.0625C1.375 50.5312 0.859375 46.5625 0.859375 42.1562V29.5469C0.859375 25.1719 1.375 21.2188 2.40625 17.6875C3.46875 14.1562 4.98438 11.1406 6.95312 8.64062C8.95312 6.10938 11.375 4.17188 14.2188 2.82812C17.0938 1.48437 20.3438 0.8125 23.9688 0.8125C28.4062 0.8125 32.1562 1.70312 35.2188 3.48438C38.3125 5.23437 40.6875 7.8125 42.3438 11.2188C44.0312 14.5938 44.9688 18.7344 45.1562 23.6406H36.5312C36.3125 20.0469 35.75 17.125 34.8438 14.875C33.9375 12.5937 32.5938 10.9219 30.8125 9.85938C29.0625 8.76563 26.7812 8.21875 23.9688 8.21875C21.4688 8.21875 19.2969 8.71875 17.4531 9.71875C15.6406 10.7187 14.1406 12.1562 12.9531 14.0312C11.7969 15.875 10.9219 18.1094 10.3281 20.7344C9.76562 23.3281 9.48438 26.2344 9.48438 29.4531V42.1562C9.48438 45.1562 9.71875 47.9531 10.1875 50.5469C10.6875 53.1406 11.4688 55.4219 12.5312 57.3906C13.625 59.3281 15.0469 60.8438 16.7969 61.9375C18.5469 63.0312 20.6719 63.5781 23.1719 63.5781C26.3281 63.5781 28.8281 63.0625 30.6719 62.0312C32.5156 61 33.875 59.3594 34.75 57.1094C35.6562 54.8594 36.25 51.9219 36.5312 48.2969ZM92.2188 62.6406V70H63.9062V62.6406H92.2188ZM65.4531 1.75V70H56.8281V1.75H65.4531ZM125.547 7.79688L106.891 70H98.0781L120.062 1.75H125.594L125.547 7.79688ZM140.641 70L121.984 7.79688L121.891 1.75H127.469L149.453 70H140.641ZM140.641 44.7344V52.1406H107.734V44.7344H140.641ZM188.688 52.75C188.688 51.1562 188.5 49.75 188.125 48.5312C187.75 47.2812 187.094 46.1562 186.156 45.1562C185.219 44.1562 183.906 43.2031 182.219 42.2969C180.531 41.3906 178.391 40.4688 175.797 39.5312C172.984 38.5312 170.438 37.4219 168.156 36.2031C165.875 34.9531 163.922 33.5312 162.297 31.9375C160.703 30.3438 159.469 28.5156 158.594 26.4531C157.719 24.3906 157.281 22.0312 157.281 19.375C157.281 16.7188 157.734 14.2656 158.641 12.0156C159.578 9.76562 160.891 7.8125 162.578 6.15625C164.297 4.46875 166.359 3.15625 168.766 2.21875C171.172 1.28125 173.859 0.8125 176.828 0.8125C181.266 0.8125 185 1.79688 188.031 3.76562C191.094 5.70312 193.406 8.25 194.969 11.4062C196.531 14.5312 197.312 17.875 197.312 21.4375H188.688C188.688 18.875 188.266 16.6094 187.422 14.6406C186.609 12.6406 185.328 11.0781 183.578 9.95312C181.859 8.79687 179.609 8.21875 176.828 8.21875C174.328 8.21875 172.266 8.70312 170.641 9.67188C169.047 10.6406 167.859 11.9531 167.078 13.6094C166.328 15.2656 165.953 17.1562 165.953 19.2812C165.953 20.7188 166.203 22.0312 166.703 23.2188C167.203 24.375 167.969 25.4531 169 26.4531C170.062 27.4531 171.375 28.375 172.938 29.2188C174.531 30.0625 176.406 30.875 178.562 31.6562C181.906 32.75 184.766 33.9688 187.141 35.3125C189.516 36.6562 191.453 38.1719 192.953 39.8594C194.453 41.5156 195.547 43.4062 196.234 45.5312C196.953 47.625 197.312 50 197.312 52.6562C197.312 55.4375 196.844 57.9531 195.906 60.2031C195 62.4531 193.672 64.375 191.922 65.9688C190.172 67.5625 188.062 68.7969 185.594 69.6719C183.125 70.5156 180.344 70.9375 177.25 70.9375C174.562 70.9375 171.922 70.5 169.328 69.625C166.766 68.75 164.438 67.4375 162.344 65.6875C160.25 63.9375 158.578 61.7812 157.328 59.2188C156.078 56.625 155.453 53.625 155.453 50.2188H164.078C164.078 52.5625 164.422 54.5781 165.109 56.2656C165.797 57.9219 166.75 59.2969 167.969 60.3906C169.188 61.4844 170.578 62.2969 172.141 62.8281C173.734 63.3281 175.438 63.5781 177.25 63.5781C179.75 63.5781 181.844 63.1406 183.531 62.2656C185.25 61.3906 186.531 60.1406 187.375 58.5156C188.25 56.8906 188.688 54.9688 188.688 52.75ZM238.469 52.75C238.469 51.1562 238.281 49.75 237.906 48.5312C237.531 47.2812 236.875 46.1562 235.938 45.1562C235 44.1562 233.688 43.2031 232 42.2969C230.312 41.3906 228.172 40.4688 225.578 39.5312C222.766 38.5312 220.219 37.4219 217.938 36.2031C215.656 34.9531 213.703 33.5312 212.078 31.9375C210.484 30.3438 209.25 28.5156 208.375 26.4531C207.5 24.3906 207.062 22.0312 207.062 19.375C207.062 16.7188 207.516 14.2656 208.422 12.0156C209.359 9.76562 210.672 7.8125 212.359 6.15625C214.078 4.46875 216.141 3.15625 218.547 2.21875C220.953 1.28125 223.641 0.8125 226.609 0.8125C231.047 0.8125 234.781 1.79688 237.812 3.76562C240.875 5.70312 243.188 8.25 244.75 11.4062C246.312 14.5312 247.094 17.875 247.094 21.4375H238.469C238.469 18.875 238.047 16.6094 237.203 14.6406C236.391 12.6406 235.109 11.0781 233.359 9.95312C231.641 8.79687 229.391 8.21875 226.609 8.21875C224.109 8.21875 222.047 8.70312 220.422 9.67188C218.828 10.6406 217.641 11.9531 216.859 13.6094C216.109 15.2656 215.734 17.1562 215.734 19.2812C215.734 20.7188 215.984 22.0312 216.484 23.2188C216.984 24.375 217.75 25.4531 218.781 26.4531C219.844 27.4531 221.156 28.375 222.719 29.2188C224.312 30.0625 226.188 30.875 228.344 31.6562C231.688 32.75 234.547 33.9688 236.922 35.3125C239.297 36.6562 241.234 38.1719 242.734 39.8594C244.234 41.5156 245.328 43.4062 246.016 45.5312C246.734 47.625 247.094 50 247.094 52.6562C247.094 55.4375 246.625 57.9531 245.688 60.2031C244.781 62.4531 243.453 64.375 241.703 65.9688C239.953 67.5625 237.844 68.7969 235.375 69.6719C232.906 70.5156 230.125 70.9375 227.031 70.9375C224.344 70.9375 221.703 70.5 219.109 69.625C216.547 68.75 214.219 67.4375 212.125 65.6875C210.031 63.9375 208.359 61.7812 207.109 59.2188C205.859 56.625 205.234 53.625 205.234 50.2188H213.859C213.859 52.5625 214.203 54.5781 214.891 56.2656C215.578 57.9219 216.531 59.2969 217.75 60.3906C218.969 61.4844 220.359 62.2969 221.922 62.8281C223.516 63.3281 225.219 63.5781 227.031 63.5781C229.531 63.5781 231.625 63.1406 233.312 62.2656C235.031 61.3906 236.312 60.1406 237.156 58.5156C238.031 56.8906 238.469 54.9688 238.469 52.75ZM258.438 1.75H277.516C281.953 1.75 285.672 2.53125 288.672 4.09375C291.703 5.65625 293.984 7.96875 295.516 11.0312C297.078 14.0625 297.859 17.7969 297.859 22.2344C297.859 25.3594 297.344 28.2188 296.312 30.8125C295.281 33.375 293.781 35.5625 291.812 37.375C289.844 39.1562 287.453 40.4844 284.641 41.3594L282.297 42.3438H265.281L265.188 34.9844H277.422C280.047 34.9844 282.234 34.4219 283.984 33.2969C285.734 32.1406 287.047 30.5938 287.922 28.6562C288.797 26.7188 289.234 24.5781 289.234 22.2344C289.234 19.6094 288.844 17.3125 288.062 15.3438C287.281 13.375 286.031 11.8594 284.312 10.7969C282.625 9.70313 280.359 9.15625 277.516 9.15625H267.062V70H258.438V1.75ZM291.203 70L277.609 39.0625L286.562 39.0156L300.438 69.4375V70H291.203ZM353.781 29.9688V41.8281C353.781 46.6406 353.25 50.875 352.188 54.5312C351.156 58.1562 349.641 61.1875 347.641 63.625C345.641 66.0625 343.234 67.8906 340.422 69.1094C337.609 70.3281 334.438 70.9375 330.906 70.9375C327.5 70.9375 324.391 70.3281 321.578 69.1094C318.766 67.8906 316.344 66.0625 314.312 63.625C312.281 61.1875 310.703 58.1562 309.578 54.5312C308.484 50.875 307.938 46.6406 307.938 41.8281V29.9688C307.938 25.1562 308.484 20.9375 309.578 17.3125C310.672 13.6562 312.234 10.6094 314.266 8.17188C316.297 5.73438 318.719 3.90625 321.531 2.6875C324.344 1.4375 327.453 0.8125 330.859 0.8125C334.391 0.8125 337.562 1.4375 340.375 2.6875C343.219 3.90625 345.625 5.73438 347.594 8.17188C349.594 10.6094 351.125 13.6562 352.188 17.3125C353.25 20.9375 353.781 25.1562 353.781 29.9688ZM345.25 41.8281V29.875C345.25 26.125 344.938 22.9062 344.312 20.2188C343.688 17.5 342.766 15.2812 341.547 13.5625C340.328 11.8437 338.828 10.5781 337.047 9.76562C335.266 8.92188 333.203 8.5 330.859 8.5C328.641 8.5 326.641 8.92188 324.859 9.76562C323.109 10.5781 321.609 11.8437 320.359 13.5625C319.109 15.2812 318.141 17.5 317.453 20.2188C316.797 22.9062 316.469 26.125 316.469 29.875V41.8281C316.469 45.6094 316.797 48.8594 317.453 51.5781C318.141 54.2656 319.109 56.4844 320.359 58.2344C321.641 59.9531 323.172 61.2344 324.953 62.0781C326.734 62.8906 328.719 63.2969 330.906 63.2969C333.25 63.2969 335.312 62.8906 337.094 62.0781C338.906 61.2344 340.406 59.9531 341.594 58.2344C342.812 56.4844 343.719 54.2656 344.312 51.5781C344.938 48.8594 345.25 45.6094 345.25 41.8281ZM411.531 29.9688V41.8281C411.531 46.6406 411 50.875 409.938 54.5312C408.906 58.1562 407.391 61.1875 405.391 63.625C403.391 66.0625 400.984 67.8906 398.172 69.1094C395.359 70.3281 392.188 70.9375 388.656 70.9375C385.25 70.9375 382.141 70.3281 379.328 69.1094C376.516 67.8906 374.094 66.0625 372.062 63.625C370.031 61.1875 368.453 58.1562 367.328 54.5312C366.234 50.875 365.688 46.6406 365.688 41.8281V29.9688C365.688 25.1562 366.234 20.9375 367.328 17.3125C368.422 13.6562 369.984 10.6094 372.016 8.17188C374.047 5.73438 376.469 3.90625 379.281 2.6875C382.094 1.4375 385.203 0.8125 388.609 0.8125C392.141 0.8125 395.312 1.4375 398.125 2.6875C400.969 3.90625 403.375 5.73438 405.344 8.17188C407.344 10.6094 408.875 13.6562 409.938 17.3125C411 20.9375 411.531 25.1562 411.531 29.9688ZM403 41.8281V29.875C403 26.125 402.688 22.9062 402.062 20.2188C401.438 17.5 400.516 15.2812 399.297 13.5625C398.078 11.8437 396.578 10.5781 394.797 9.76562C393.016 8.92188 390.953 8.5 388.609 8.5C386.391 8.5 384.391 8.92188 382.609 9.76562C380.859 10.5781 379.359 11.8437 378.109 13.5625C376.859 15.2812 375.891 17.5 375.203 20.2188C374.547 22.9062 374.219 26.125 374.219 29.875V41.8281C374.219 45.6094 374.547 48.8594 375.203 51.5781C375.891 54.2656 376.859 56.4844 378.109 58.2344C379.391 59.9531 380.922 61.2344 382.703 62.0781C384.484 62.8906 386.469 63.2969 388.656 63.2969C391 63.2969 393.062 62.8906 394.844 62.0781C396.656 61.2344 398.156 59.9531 399.344 58.2344C400.562 56.4844 401.469 54.2656 402.062 51.5781C402.688 48.8594 403 45.6094 403 41.8281ZM427.609 1.75H435.953L453.812 57.3906L471.625 1.75H479.969L457.047 70H450.484L427.609 1.75ZM424.891 1.75H432.203L433.469 43.375V70H424.891V1.75ZM475.328 1.75H482.641V70H474.062V43.375L475.328 1.75Z" fill="white"/>
</svg>
