<svg width="64" height="64" viewBox="0 0 64 64" fill="none" xmlns="http://www.w3.org/2000/svg">
<path d="M25.7262 12.9249C21.5114 10.9846 15.6202 10.0342 7.73303 10.0004C6.98919 9.99067 6.25994 10.1998 5.64254 10.5999C5.13576 10.9302 4.72093 11.3755 4.43452 11.8967C4.14811 12.4178 3.99889 12.9988 4.00001 13.5886V45.7698C4.00001 47.9452 5.60521 49.5863 7.73303 49.5863C16.0238 49.5863 24.3403 50.3332 29.3216 54.8729C29.3897 54.9353 29.4753 54.977 29.5679 54.9929C29.6604 55.0087 29.7557 54.998 29.8419 54.962C29.9282 54.9261 30.0016 54.8665 30.053 54.7907C30.1044 54.7148 30.1316 54.6261 30.1312 54.5355V16.6166C30.1314 16.3608 30.0746 16.1079 29.9647 15.875C29.8548 15.6422 29.6944 15.4348 29.4942 15.2668C28.3532 14.3263 27.0858 13.5386 25.7262 12.9249ZM58.3528 10.5966C57.7351 10.1974 57.0058 9.98946 56.2623 10.0004C48.3751 10.0342 42.484 10.9801 38.2691 12.9249C36.9096 13.5374 35.6419 14.3236 34.5 15.2623C34.3002 15.4305 34.1402 15.638 34.0305 15.8709C33.9208 16.1037 33.8641 16.3564 33.8642 16.6121V54.5332C33.8641 54.6203 33.8907 54.7055 33.9407 54.778C33.9906 54.8505 34.0616 54.9072 34.1449 54.941C34.2281 54.9748 34.3198 54.9841 34.4085 54.9678C34.4972 54.9514 34.5789 54.9102 34.6434 54.8493C37.638 51.981 42.8934 49.5829 56.267 49.584C57.257 49.584 58.2065 49.2048 58.9066 48.5298C59.6067 47.8548 60 46.9392 60 45.9846V13.5897C60.0014 12.9988 59.8518 12.4166 59.5645 11.8946C59.2772 11.3725 58.8611 10.9268 58.3528 10.5966Z" fill="#00D56F"/>
</svg>
