<svg width="36" height="37" viewBox="0 0 36 37" fill="none" xmlns="http://www.w3.org/2000/svg">
<path d="M29.7844 15.7101C29.7844 6.56011 24.8625 3.44761 20.2594 2.75386C20.2594 2.70698 20.2688 2.66011 20.2688 2.60386C20.2688 1.45073 19.2469 0.531982 18 0.531982C16.7531 0.531982 15.7687 1.45073 15.7687 2.60386C15.7687 2.66011 15.7688 2.70698 15.7781 2.75386C11.1656 3.45698 6.21563 6.57886 6.21563 15.7289C6.21563 26.3976 3.5625 27.5414 0 30.5414H36C32.4562 27.532 29.7844 26.3789 29.7844 15.7101Z" fill="#B7B4B4"/>
<path d="M18.0188 36.532C20.5313 36.532 22.5938 34.6664 22.8656 32.5007H13.1719C13.4344 34.6664 15.5063 36.532 18.0188 36.532Z" fill="#B7B4B4"/>
</svg>
