<svg width="323" height="48" viewBox="0 0 323 48" fill="none" xmlns="http://www.w3.org/2000/svg">
<path d="M24.6875 32.5312H30.4375C30.2917 35.6562 29.6562 38.3542 28.5312 40.625C27.4271 42.875 25.8125 44.6042 23.6875 45.8125C21.5833 47.0208 18.9479 47.625 15.7812 47.625C13.5104 47.625 11.4583 47.1771 9.625 46.2812C7.79167 45.3854 6.21875 44.1042 4.90625 42.4375C3.61458 40.75 2.625 38.7292 1.9375 36.375C1.25 34.0208 0.90625 31.375 0.90625 28.4375V20.0312C0.90625 17.1146 1.25 14.4792 1.9375 12.125C2.64583 9.77083 3.65625 7.76042 4.96875 6.09375C6.30208 4.40625 7.91667 3.11458 9.8125 2.21875C11.7292 1.32292 13.8958 0.875 16.3125 0.875C19.2708 0.875 21.7708 1.46875 23.8125 2.65625C25.875 3.82292 27.4583 5.54167 28.5625 7.8125C29.6875 10.0625 30.3125 12.8229 30.4375 16.0938H24.6875C24.5417 13.6979 24.1667 11.75 23.5625 10.25C22.9583 8.72917 22.0625 7.61458 20.875 6.90625C19.7083 6.17708 18.1875 5.8125 16.3125 5.8125C14.6458 5.8125 13.1979 6.14583 11.9688 6.8125C10.7604 7.47917 9.76042 8.4375 8.96875 9.6875C8.19792 10.9167 7.61458 12.4062 7.21875 14.1562C6.84375 15.8854 6.65625 17.8229 6.65625 19.9688V28.4375C6.65625 30.4375 6.8125 32.3021 7.125 34.0312C7.45833 35.7604 7.97917 37.2812 8.6875 38.5938C9.41667 39.8854 10.3646 40.8958 11.5312 41.625C12.6979 42.3542 14.1146 42.7188 15.7812 42.7188C17.8854 42.7188 19.5521 42.375 20.7812 41.6875C22.0104 41 22.9167 39.9062 23.5 38.4062C24.1042 36.9062 24.5 34.9479 24.6875 32.5312ZM61.8125 42.0938V47H42.9375V42.0938H61.8125ZM43.9688 1.5V47H38.2188V1.5H43.9688ZM84.0312 5.53125L71.5938 47H65.7188L80.375 1.5H84.0625L84.0312 5.53125ZM94.0938 47L81.6562 5.53125L81.5938 1.5H85.3125L99.9688 47H94.0938ZM94.0938 30.1562V35.0938H72.1562V30.1562H94.0938ZM126.125 35.5C126.125 34.4375 126 33.5 125.75 32.6875C125.5 31.8542 125.062 31.1042 124.438 30.4375C123.812 29.7708 122.938 29.1354 121.812 28.5312C120.688 27.9271 119.26 27.3125 117.531 26.6875C115.656 26.0208 113.958 25.2812 112.438 24.4688C110.917 23.6354 109.615 22.6875 108.531 21.625C107.469 20.5625 106.646 19.3438 106.062 17.9688C105.479 16.5938 105.188 15.0208 105.188 13.25C105.188 11.4792 105.49 9.84375 106.094 8.34375C106.719 6.84375 107.594 5.54167 108.719 4.4375C109.865 3.3125 111.24 2.4375 112.844 1.8125C114.448 1.1875 116.24 0.875 118.219 0.875C121.177 0.875 123.667 1.53125 125.688 2.84375C127.729 4.13542 129.271 5.83333 130.312 7.9375C131.354 10.0208 131.875 12.25 131.875 14.625H126.125C126.125 12.9167 125.844 11.4062 125.281 10.0938C124.74 8.76042 123.885 7.71875 122.719 6.96875C121.573 6.19792 120.073 5.8125 118.219 5.8125C116.552 5.8125 115.177 6.13542 114.094 6.78125C113.031 7.42708 112.24 8.30208 111.719 9.40625C111.219 10.5104 110.969 11.7708 110.969 13.1875C110.969 14.1458 111.135 15.0208 111.469 15.8125C111.802 16.5833 112.312 17.3021 113 17.9688C113.708 18.6354 114.583 19.25 115.625 19.8125C116.688 20.375 117.938 20.9167 119.375 21.4375C121.604 22.1667 123.51 22.9792 125.094 23.875C126.677 24.7708 127.969 25.7812 128.969 26.9062C129.969 28.0104 130.698 29.2708 131.156 30.6875C131.635 32.0833 131.875 33.6667 131.875 35.4375C131.875 37.2917 131.562 38.9688 130.938 40.4688C130.333 41.9688 129.448 43.25 128.281 44.3125C127.115 45.375 125.708 46.1979 124.062 46.7812C122.417 47.3438 120.562 47.625 118.5 47.625C116.708 47.625 114.948 47.3333 113.219 46.75C111.51 46.1667 109.958 45.2917 108.562 44.125C107.167 42.9583 106.052 41.5208 105.219 39.8125C104.385 38.0833 103.969 36.0833 103.969 33.8125H109.719C109.719 35.375 109.948 36.7188 110.406 37.8438C110.865 38.9479 111.5 39.8646 112.312 40.5938C113.125 41.3229 114.052 41.8646 115.094 42.2188C116.156 42.5521 117.292 42.7188 118.5 42.7188C120.167 42.7188 121.562 42.4271 122.688 41.8438C123.833 41.2604 124.688 40.4271 125.25 39.3438C125.833 38.2604 126.125 36.9792 126.125 35.5ZM159.312 35.5C159.312 34.4375 159.188 33.5 158.938 32.6875C158.688 31.8542 158.25 31.1042 157.625 30.4375C157 29.7708 156.125 29.1354 155 28.5312C153.875 27.9271 152.448 27.3125 150.719 26.6875C148.844 26.0208 147.146 25.2812 145.625 24.4688C144.104 23.6354 142.802 22.6875 141.719 21.625C140.656 20.5625 139.833 19.3438 139.25 17.9688C138.667 16.5938 138.375 15.0208 138.375 13.25C138.375 11.4792 138.677 9.84375 139.281 8.34375C139.906 6.84375 140.781 5.54167 141.906 4.4375C143.052 3.3125 144.427 2.4375 146.031 1.8125C147.635 1.1875 149.427 0.875 151.406 0.875C154.365 0.875 156.854 1.53125 158.875 2.84375C160.917 4.13542 162.458 5.83333 163.5 7.9375C164.542 10.0208 165.062 12.25 165.062 14.625H159.312C159.312 12.9167 159.031 11.4062 158.469 10.0938C157.927 8.76042 157.073 7.71875 155.906 6.96875C154.76 6.19792 153.26 5.8125 151.406 5.8125C149.74 5.8125 148.365 6.13542 147.281 6.78125C146.219 7.42708 145.427 8.30208 144.906 9.40625C144.406 10.5104 144.156 11.7708 144.156 13.1875C144.156 14.1458 144.323 15.0208 144.656 15.8125C144.99 16.5833 145.5 17.3021 146.188 17.9688C146.896 18.6354 147.771 19.25 148.812 19.8125C149.875 20.375 151.125 20.9167 152.562 21.4375C154.792 22.1667 156.698 22.9792 158.281 23.875C159.865 24.7708 161.156 25.7812 162.156 26.9062C163.156 28.0104 163.885 29.2708 164.344 30.6875C164.823 32.0833 165.062 33.6667 165.062 35.4375C165.062 37.2917 164.75 38.9688 164.125 40.4688C163.521 41.9688 162.635 43.25 161.469 44.3125C160.302 45.375 158.896 46.1979 157.25 46.7812C155.604 47.3438 153.75 47.625 151.688 47.625C149.896 47.625 148.135 47.3333 146.406 46.75C144.698 46.1667 143.146 45.2917 141.75 44.125C140.354 42.9583 139.24 41.5208 138.406 39.8125C137.573 38.0833 137.156 36.0833 137.156 33.8125H142.906C142.906 35.375 143.135 36.7188 143.594 37.8438C144.052 38.9479 144.688 39.8646 145.5 40.5938C146.312 41.3229 147.24 41.8646 148.281 42.2188C149.344 42.5521 150.479 42.7188 151.688 42.7188C153.354 42.7188 154.75 42.4271 155.875 41.8438C157.021 41.2604 157.875 40.4271 158.438 39.3438C159.021 38.2604 159.312 36.9792 159.312 35.5ZM172.625 1.5H185.344C188.302 1.5 190.781 2.02083 192.781 3.0625C194.802 4.10417 196.323 5.64583 197.344 7.6875C198.385 9.70833 198.906 12.1979 198.906 15.1562C198.906 17.2396 198.562 19.1458 197.875 20.875C197.188 22.5833 196.188 24.0417 194.875 25.25C193.562 26.4375 191.969 27.3229 190.094 27.9062L188.531 28.5625H177.188L177.125 23.6562H185.281C187.031 23.6562 188.49 23.2812 189.656 22.5312C190.823 21.7604 191.698 20.7292 192.281 19.4375C192.865 18.1458 193.156 16.7188 193.156 15.1562C193.156 13.4062 192.896 11.875 192.375 10.5625C191.854 9.25 191.021 8.23958 189.875 7.53125C188.75 6.80208 187.24 6.4375 185.344 6.4375H178.375V47H172.625V1.5ZM194.469 47L185.406 26.375L191.375 26.3438L200.625 46.625V47H194.469ZM236.188 20.3125V28.2188C236.188 31.4271 235.833 34.25 235.125 36.6875C234.438 39.1042 233.427 41.125 232.094 42.75C230.76 44.375 229.156 45.5938 227.281 46.4062C225.406 47.2188 223.292 47.625 220.938 47.625C218.667 47.625 216.594 47.2188 214.719 46.4062C212.844 45.5938 211.229 44.375 209.875 42.75C208.521 41.125 207.469 39.1042 206.719 36.6875C205.99 34.25 205.625 31.4271 205.625 28.2188V20.3125C205.625 17.1042 205.99 14.2917 206.719 11.875C207.448 9.4375 208.49 7.40625 209.844 5.78125C211.198 4.15625 212.812 2.9375 214.688 2.125C216.562 1.29167 218.635 0.875 220.906 0.875C223.26 0.875 225.375 1.29167 227.25 2.125C229.146 2.9375 230.75 4.15625 232.062 5.78125C233.396 7.40625 234.417 9.4375 235.125 11.875C235.833 14.2917 236.188 17.1042 236.188 20.3125ZM230.5 28.2188V20.25C230.5 17.75 230.292 15.6042 229.875 13.8125C229.458 12 228.844 10.5208 228.031 9.375C227.219 8.22917 226.219 7.38542 225.031 6.84375C223.844 6.28125 222.469 6 220.906 6C219.427 6 218.094 6.28125 216.906 6.84375C215.74 7.38542 214.74 8.22917 213.906 9.375C213.073 10.5208 212.427 12 211.969 13.8125C211.531 15.6042 211.312 17.75 211.312 20.25V28.2188C211.312 30.7396 211.531 32.9062 211.969 34.7188C212.427 36.5104 213.073 37.9896 213.906 39.1562C214.76 40.3021 215.781 41.1562 216.969 41.7188C218.156 42.2604 219.479 42.5312 220.938 42.5312C222.5 42.5312 223.875 42.2604 225.062 41.7188C226.271 41.1562 227.271 40.3021 228.062 39.1562C228.875 37.9896 229.479 36.5104 229.875 34.7188C230.292 32.9062 230.5 30.7396 230.5 28.2188ZM274.688 20.3125V28.2188C274.688 31.4271 274.333 34.25 273.625 36.6875C272.938 39.1042 271.927 41.125 270.594 42.75C269.26 44.375 267.656 45.5938 265.781 46.4062C263.906 47.2188 261.792 47.625 259.438 47.625C257.167 47.625 255.094 47.2188 253.219 46.4062C251.344 45.5938 249.729 44.375 248.375 42.75C247.021 41.125 245.969 39.1042 245.219 36.6875C244.49 34.25 244.125 31.4271 244.125 28.2188V20.3125C244.125 17.1042 244.49 14.2917 245.219 11.875C245.948 9.4375 246.99 7.40625 248.344 5.78125C249.698 4.15625 251.312 2.9375 253.188 2.125C255.062 1.29167 257.135 0.875 259.406 0.875C261.76 0.875 263.875 1.29167 265.75 2.125C267.646 2.9375 269.25 4.15625 270.562 5.78125C271.896 7.40625 272.917 9.4375 273.625 11.875C274.333 14.2917 274.688 17.1042 274.688 20.3125ZM269 28.2188V20.25C269 17.75 268.792 15.6042 268.375 13.8125C267.958 12 267.344 10.5208 266.531 9.375C265.719 8.22917 264.719 7.38542 263.531 6.84375C262.344 6.28125 260.969 6 259.406 6C257.927 6 256.594 6.28125 255.406 6.84375C254.24 7.38542 253.24 8.22917 252.406 9.375C251.573 10.5208 250.927 12 250.469 13.8125C250.031 15.6042 249.812 17.75 249.812 20.25V28.2188C249.812 30.7396 250.031 32.9062 250.469 34.7188C250.927 36.5104 251.573 37.9896 252.406 39.1562C253.26 40.3021 254.281 41.1562 255.469 41.7188C256.656 42.2604 257.979 42.5312 259.438 42.5312C261 42.5312 262.375 42.2604 263.562 41.7188C264.771 41.1562 265.771 40.3021 266.562 39.1562C267.375 37.9896 267.979 36.5104 268.375 34.7188C268.792 32.9062 269 30.7396 269 28.2188ZM285.406 1.5H290.969L302.875 38.5938L314.75 1.5H320.312L305.031 47H300.656L285.406 1.5ZM283.594 1.5H288.469L289.312 29.25V47H283.594V1.5ZM317.219 1.5H322.094V47H316.375V29.25L317.219 1.5Z" fill="white"/>
</svg>
